<?xml version="1.0" encoding="UTF-8" standalone="no"?>
<!-- Created with Inkscape (http://www.inkscape.org/) -->

<svg
   xmlns:dc="http://purl.org/dc/elements/1.1/"
   xmlns:cc="http://creativecommons.org/ns#"
   xmlns:rdf="http://www.w3.org/1999/02/22-rdf-syntax-ns#"
   xmlns:svg="http://www.w3.org/2000/svg"
   xmlns="http://www.w3.org/2000/svg"
   xmlns:xlink="http://www.w3.org/1999/xlink"
   xmlns:sodipodi="http://sodipodi.sourceforge.net/DTD/sodipodi-0.dtd"
   xmlns:inkscape="http://www.inkscape.org/namespaces/inkscape"
   width="4000"
   height="4000"
   viewBox="0 0 1058.3333 1058.3334"
   version="1.1"
   id="svg1371"
   inkscape:version="0.92.3 (2405546, 2018-03-11)"
   sodipodi:docname="SOURCEFILE.svg">
  <defs
     id="defs1365">
    <linearGradient
       inkscape:collect="always"
       xlink:href="#linearGradient2002"
       id="linearGradient2703"
       gradientUnits="userSpaceOnUse"
       gradientTransform="matrix(0.3013003,0,0,0.3013003,3392.2468,-1032.9644)"
       x1="-9992.415"
       y1="2313.9058"
       x2="-9021.002"
       y2="1753.0599" />
    <linearGradient
       inkscape:collect="always"
       id="linearGradient2002">
      <stop
         style="stop-color:#bf9e51;stop-opacity:1;"
         offset="0"
         id="stop1998" />
      <stop
         id="stop2006"
         offset="0.13333301"
         style="stop-color:#eacf79;stop-opacity:1" />
      <stop
         style="stop-color:#bf9e51;stop-opacity:1;"
         offset="0.25614011"
         id="stop2008" />
      <stop
         id="stop2010"
         offset="0.36491209"
         style="stop-color:#ebcf7a;stop-opacity:1" />
      <stop
         style="stop-color:#bf9e51;stop-opacity:1;"
         offset="0.48771918"
         id="stop2012" />
      <stop
         id="stop2014"
         offset="0.58947361"
         style="stop-color:#ebd07a;stop-opacity:1" />
      <stop
         style="stop-color:#bf9e51;stop-opacity:1;"
         offset="0.70877194"
         id="stop2016" />
      <stop
         id="stop2018"
         offset="0.84561414"
         style="stop-color:#ebd07a;stop-opacity:1" />
      <stop
         style="stop-color:#bf9e51;stop-opacity:1"
         offset="1"
         id="stop2000" />
    </linearGradient>
  </defs>
  <sodipodi:namedview
     id="base"
     pagecolor="#ffffff"
     bordercolor="#666666"
     borderopacity="1.0"
     inkscape:pageopacity="0.0"
     inkscape:pageshadow="2"
     inkscape:zoom="0.12374369"
     inkscape:cx="1169.1934"
     inkscape:cy="1515.6203"
     inkscape:document-units="mm"
     inkscape:current-layer="layer1"
     showgrid="false"
     units="px"
     inkscape:window-width="1366"
     inkscape:window-height="717"
     inkscape:window-x="0"
     inkscape:window-y="0"
     inkscape:window-maximized="1" />
  <metadata
     id="metadata1368">
    <rdf:RDF>
      <cc:Work
         rdf:about="">
        <dc:format>image/svg+xml</dc:format>
        <dc:type
           rdf:resource="http://purl.org/dc/dcmitype/StillImage" />
        <dc:title></dc:title>
      </cc:Work>
    </rdf:RDF>
  </metadata>
  <g
     inkscape:label="Layer 1"
     inkscape:groupmode="layer"
     id="layer1"
     transform="translate(0,761.33335)">
    <path
       style="opacity:1;fill:#000000;fill-opacity:1;stroke:none;stroke-width:2.16499996;stroke-linecap:butt;stroke-linejoin:miter;stroke-miterlimit:4;stroke-dasharray:none;stroke-dashoffset:0;stroke-opacity:1"
       d="M -8.3333334e-6,-761.33334 H 1058.3333 V 296.99997 H -8.3333334e-6 Z"
       id="rect1916"
       inkscape:connector-curvature="0" />
    <path
       sodipodi:nodetypes="ccccccccccccccccccccccccccccc"
       inkscape:connector-curvature="0"
       id="path2672"
       d="m 581.53433,-398.87892 v 0.006 z m 0,0.01 c -3.23414,18.72768 0.13973,28.89614 13.11535,42.25932 1.43066,1.40262 3.01438,2.59995 4.45679,3.98799 1.47257,1.31084 2.85083,2.74035 4.18685,4.2188 1.26425,1.20544 2.44371,2.51303 3.59458,3.84969 1.01051,1.18241 2.02928,2.33417 2.95595,3.59928 0.5313,0.71203 1.02416,1.45539 1.47035,2.23357 -16.984,3.14913 -37.05383,-8.1904 -40.94756,-28.97166 -0.13338,-0.84454 -0.073,-0.42872 -0.16514,-1.25167 -7.69918,22.98443 4.13128,39.61806 17.37144,46.52204 1.3322,0.57118 2.65012,1.18263 4.04045,1.57214 1.42335,0.50471 2.90799,0.81314 4.39676,1.02181 1.43066,0.27978 2.89212,0.36159 4.33421,0.56013 1.36015,0.15212 2.71427,0.31217 4.0757,0.4325 1.2182,0.10925 2.4472,0.19658 3.67239,0.0286 1.18327,-0.11019 2.40369,-0.17815 3.54472,-0.58541 1.19311,-0.49836 1.92702,-1.33605 2.60313,-2.53755 0.38966,-0.70796 0.96319,-1.60649 1.07116,-2.44015 2.60916,-18.89898 2.27826,-13.49465 2.70983,-20.91777 0.0572,-1.26012 0.0889,-2.52028 0.0349,-3.77662 -0.10163,-1.21385 -0.23183,-2.43233 -0.6145,-3.57397 -0.43063,-1.28575 -0.96034,-2.52672 -1.57547,-3.7103 -0.73676,-1.33567 -1.61675,-2.54902 -2.53707,-3.73082 -1.01305,-1.1378 -2.05119,-2.25142 -3.10711,-3.3392 -8.42039,-8.38199 -27.01704,-22.08685 -28.66873,-35.44847 z"
       style="opacity:1;fill:#ffffff;fill-opacity:1;stroke:none;stroke-width:3.91583276;stroke-linecap:butt;stroke-linejoin:miter;stroke-miterlimit:4;stroke-dasharray:none;stroke-dashoffset:0;stroke-opacity:1" />
    <path
       sodipodi:nodetypes="ccc"
       inkscape:connector-curvature="0"
       id="path2678"
       d="m 411.32375,-379.8517 c 8.88372,-57.93175 103.10948,-65.99195 94.45314,-116.48797 -7.53627,37.41433 -97.43831,45.90474 -94.45314,116.48797 z"
       style="opacity:1;fill:#ffffff;fill-opacity:1;stroke:none;stroke-width:3.91583276;stroke-linecap:butt;stroke-linejoin:miter;stroke-miterlimit:4;stroke-dasharray:none;stroke-dashoffset:0;stroke-opacity:1" />
    <path
       inkscape:connector-curvature="0"
       style="fill:#c9a95a;fill-opacity:1;stroke:none;stroke-width:1"
       d="m 513.85875,-376.87578 c -0.74756,0.15815 -4.88106,3.4062 -8.56234,8.9232 -3.31703,4.97173 -5.21769,9.16328 -5.65911,12.42987 -0.49287,3.40484 1.58118,7.55247 5.49206,8.20254 7.84972,1.12477 10.64688,-9.90665 9.99618,-13.85415 -1.69456,4.50375 -4.13001,4.78989 -6.43367,4.33389 -5.57273,-1.76595 1.24615,-14.71906 5.16688,-20.03535 z"
       id="path2686"
       sodipodi:nodetypes="ccccccc" />
    <path
       sodipodi:nodetypes="ccccccc"
       id="path2688"
       d="m 525.727,-394.26404 c 0.74756,-0.15815 4.88106,-3.40617 8.5617,-8.92314 3.31735,-4.97179 5.21864,-9.16334 5.66038,-12.4299 0.49256,-3.40484 -1.58182,-7.5525 -5.49302,-8.20257 -7.84907,-1.12474 -10.64624,9.90668 -9.99585,13.85418 1.69456,-4.50375 4.13001,-4.78992 6.43398,-4.33388 5.57273,1.76594 -1.24615,14.71902 -5.16719,20.03531 z"
       style="fill:#c9a95a;fill-opacity:1;stroke:none;stroke-width:1"
       inkscape:connector-curvature="0" />
    <path
       sodipodi:nodetypes="ccscccccccccccccc"
       inkscape:connector-curvature="0"
       id="path2690"
       d="m 510.08188,-424.13916 c -0.74343,-3.08967 -7.59756,-15.7998 -9.93679,-13.64725 -0.49573,0.46591 -1.31506,0.84706 -1.82,0.84706 -1.02099,0 -4.79341,-2.62494 -6.09132,-4.23855 -1.65867,-2.06129 -0.15243,-8.94139 2.53898,-11.62468 1.94385,-1.93603 3.84514,-1.52135 8.68492,1.89403 6.709,5.07662 9.01742,9.01665 10.41791,16.8092 0.25088,1.4305 0.35631,1.28331 1.39826,-1.92317 0.62053,-1.90971 1.58658,-6.20835 2.1471,-9.55256 0.72755,-5.71561 3.90262,-13.80184 9.58904,-14.06225 2.09502,0.0337 4.42408,1.54364 5.77185,3.74485 1.32808,2.16981 1.39382,3.27787 0.35504,6.00758 -1.87049,4.91355 -2.55041,5.21842 -5.22467,2.34387 -1.95877,-2.10477 -2.43926,-2.18063 -3.98392,-0.62905 -3.5117,6.01374 -5.31677,14.98737 -6.46669,21.92448 -0.29534,1.82149 -0.76757,2.7795 -1.79872,3.63513 -2.04929,1.69015 -5.26183,0.4024 -5.58099,-1.52869 z"
       style="fill:#c9a95a;fill-opacity:1;stroke-width:1" />
    <path
       inkscape:connector-curvature="0"
       style="fill:#c9a95a;fill-opacity:1;stroke:none;stroke-width:1"
       d="m 521.52363,-327.64276 c -0.79234,0.16767 -5.17259,3.60973 -9.07363,9.4563 -3.51519,5.26885 -5.52986,9.71083 -5.99764,13.17264 -0.52208,3.60824 1.67582,8.0037 5.82044,8.69261 8.31908,1.1919 11.28328,-10.4986 10.59352,-14.68193 -1.79618,4.77287 -4.37676,5.07608 -6.81824,4.59283 -5.90586,-1.8715 1.32109,-15.5985 5.47555,-21.23245 z"
       id="path2692"
       sodipodi:nodetypes="ccccccc" />
    <path
       inkscape:connector-curvature="0"
       style="fill:#c9a95a;fill-opacity:1;stroke:none;stroke-width:0.99999994"
       d="m 480.23341,-272.23776 c -0.7447,0.15783 -4.86137,3.39219 -8.52709,8.88648 -3.30305,4.95128 -5.19673,9.12568 -5.63656,12.37884 -0.49033,3.3909 1.57515,7.52144 5.47015,8.16887 7.81764,1.12014 10.60274,-9.86596 9.95521,-13.79723 -1.68757,4.48524 -4.11318,4.77013 -6.40763,4.31603 -5.54986,-1.7587 1.24139,-14.65858 5.14592,-19.95299 z"
       id="path2694"
       sodipodi:nodetypes="ccccccc" />
    <path
       sodipodi:nodetypes="cccccccccccccc"
       inkscape:connector-curvature="0"
       id="path2696"
       d="m 632.90869,-161.52313 c -5.07414,35.48903 15.22847,40.36114 39.9831,50.84507 -15.0881,2.58741 -55.64759,11.388686 -62.2267,-7.42166 -1.65613,-9.18837 -1.90193,-12.44801 -1.62342,-26.92018 -3.77211,12.90788 -3.54854,27.0051 -2.40274,36.1868 2.35542,25.702516 74.05367,16.513323 77.7648,10.611843 2.90609,-4.977573 4.5365,-11.572913 4.12048,-17.307003 -0.36044,-6.35773 -1.23376,-7.89982 -13.04708,-13.13926 -32.06098,-14.24216 -41.39502,-24.53656 -42.56844,-32.85561 z m -23.88449,16.47687 3.2e-4,0.0286 h 0.0349 l -3.2e-4,-0.0286 z"
       style="opacity:1;fill:#ffffff;fill-opacity:1;stroke:none;stroke-width:3.91583371;stroke-linecap:butt;stroke-linejoin:miter;stroke-miterlimit:4;stroke-dasharray:none;stroke-dashoffset:0;stroke-opacity:1" />
    <path
       style="opacity:1;fill:#ffffff;fill-opacity:1;stroke:none;stroke-width:3.91583371;stroke-linecap:butt;stroke-linejoin:miter;stroke-miterlimit:4;stroke-dasharray:none;stroke-dashoffset:0;stroke-opacity:1"
       d="m 425.70398,-149.43188 c -11.49415,29.34604 8.6592,33.37487 32.43318,42.04407 -16.06939,2.13957 -59.5915,9.417371 -63.09081,-6.13702 -0.0985,-7.59788 0.21912,-10.29332 3.05534,-22.26047 -6.17421,10.67362 -8.42261,22.33072 -8.85196,29.92307 -2.08327,21.253577 73.7307,13.654968 78.6089,8.775018 3.88326,-4.115968 6.73091,-9.569708 7.30921,-14.311258 0.74502,-5.25722 0.11433,-6.5324 -11.19087,-10.86492 -30.67352,-11.77695 -38.52228,-20.28943 -38.27299,-27.16849 z m -27.61531,13.6248 3.2e-4,0.0191 h 0.0349 l -6.3e-4,-0.0191 z"
       id="path2700"
       inkscape:connector-curvature="0"
       sodipodi:nodetypes="cccccccccccccc" />
    <path
       style="fill:url(#linearGradient2703);fill-opacity:1;stroke:none;stroke-width:0.99999994"
       d="m 542.93552,-576.42706 c -11.42016,0.0959 -22.85556,5.10148 -29.4026,13.19712 -2.01467,2.03157 -3.39451,4.50716 -4.62796,7.07684 -1.10451,2.72524 -1.86954,5.58855 -2.61646,8.43957 -0.68437,2.67973 -1.02957,5.44164 -1.22741,8.20971 -0.37156,9.17713 0.611,18.53648 2.81462,27.51639 0.51256,2.62793 1.41891,5.10768 2.64442,7.49273 8.81798,19.11582 25.68607,31.25944 39.94467,45.18656 6.6223,6.50658 12.29348,13.7027 15.77469,22.55041 2.58757,7.92066 7.10533,20.23106 -0.7952,26.67473 -3.95058,3.09574 -8.98121,0.79389 -9.98918,-9.08055 -0.42237,2.47187 -2.50278,14.23218 -1.15501,22.74616 0.58592,6.77206 6.9386,10.89219 2.51008,15.63432 -1.20963,1.21413 -2.27539,1.60456 -3.20556,1.46117 -5.10241,-2.478 -5.75343,-11.22123 -6.18342,-15.13948 -1.05433,10.63731 -3.35862,20.42132 0.69009,29.87857 0.64339,1.46162 1.41827,2.77897 2.33922,3.75026 -0.23183,1.07288 -0.58909,2.04442 -1.13786,2.88722 -7.54611,8.94286 -12.53356,-2.1207 -12.39668,-8.46494 -1.15533,2.79748 -6.48543,17.37147 -0.35568,25.73961 l -0.0349,0.44225 c -0.78281,16.33546 1.97815,28.92615 8.08916,41.13427 8.75384,17.33227 21.96002,31.04818 34.33416,45.54887 22.02546,25.88379 39.99202,57.95144 42.53291,92.60082 -8.03835,-17.24152 -18.53664,-32.72159 -31.68724,-47.88572 -21.82377,-24.2563 -48.1345,-43.65581 -72.9301,-64.53217 -23.55899,-19.24714 -43.28743,-38.28378 -39.64076,-70.0796 -8.39054,27.73256 -5.66515,46.29768 10.42171,66.31962 3.53965,3.81317 7.22442,7.48676 11.01304,11.05797 -10.83837,36.39497 -37.7401,73.57373 -69.10815,93.26708 21.30772,-29.0889 29.67762,-58.38219 31.13844,-93.93626 -0.94636,-18.27464 -4.7896,-33.52172 0.17784,-50.87727 4.56222,-13.93821 15.6032,-27.48161 19.4963,-41.35345 0.30805,-1.26409 0.73232,-2.49611 1.05307,-3.75705 0.12702,-0.43003 0.38235,-0.8429 0.41093,-1.28489 0.57862,-7.36428 1.1007,-14.74329 1.55324,-22.11394 0.0699,-1.19864 0.15243,-2.39699 0.20007,-3.59541 0.0635,-1.31795 0.1175,-2.636 0.17784,-3.95388 0.054,-1.41681 0.1175,-2.83375 0.13338,-4.249 0.0349,-1.42929 0,-2.85757 -0.0572,-4.28117 -0.0667,-1.02544 -0.17467,-2.04376 -0.3017,-3.05869 8.30257,-1.14538 15.98842,1.52342 16.99416,12.58244 3.50027,-21.06167 -5.75438,-29.29872 -18.92753,-28.3502 -7.9599,0.99457 -15.40217,4.88843 -21.35504,10.14524 -22.3738,19.65442 -28.23584,51.06759 -46.48282,62.98141 -10.13495,5.9233 -27.86301,-7.50439 -7.04784,-39.85925 -19.97456,27.50277 -18.99899,44.23845 -12.18138,52.67348 13.26429,10.94803 26.15449,1.15917 35.76227,-11.9035 6.21391,-11.59559 11.48304,-23.91085 19.86468,-34.17623 4.29483,-6.84539 9.67733,-13.12249 16.66484,-17.32923 2.22744,-1.58801 4.97284,-3.10288 7.92529,-4.31721 0.21913,0.33062 0.3903,0.71002 0.55639,1.00429 0.59608,1.09622 1.13468,2.2268 1.6936,3.34697 0.54083,1.14913 0.8133,2.41989 1.33952,3.57108 0.48366,1.28581 0.75581,2.6493 1.06767,3.9938 0.235,1.31916 0.41951,2.65159 0.60783,3.98116 0.17784,1.37365 0.23818,2.76747 0.27311,4.16034 0.0349,0.41468 0.0349,0.82943 0.0349,1.24494 -0.26676,0.9671 -0.54876,1.93162 -0.83489,2.895 -0.32106,1.36686 -0.76058,2.69456 -1.27663,4.01035 -0.47858,1.2995 -1.14167,2.52986 -1.64661,3.8185 -0.55956,1.30439 -1.18517,2.58357 -1.81269,3.86036 -0.5421,1.35685 -1.18546,2.6695 -1.89209,3.95677 -9.62588,20.44218 -18.60107,36.31869 -19.93455,56.47242 -1.31982,21.06599 6.66454,43.2141 0.32774,63.4275 -10.00094,31.12072 -25.44916,66.25706 -51.04282,85.34474 l -0.19054,19.04662 c 40.40229,-17.50319 90.45937,-69.19217 100.69309,-123.6483 17.68773,16.05129 37.32281,30.146 55.32716,45.4213 21.98005,18.17286 62.3585,54.46087 62.12762,91.99785 12.76158,-33.04209 3.1557,-79.32122 -13.14584,-111.09023 -8.98661,-16.77614 -20.62748,-31.5166 -33.86605,-46.38853 -8.99551,-10.28062 -18.13805,-20.64451 -24.87372,-32.87295 -3.78672,-6.85184 -6.66327,-14.18004 -7.9307,-22.05363 4.80262,2.50385 11.08417,0.7092 13.77876,-3.82917 0.40998,-0.82845 0.79932,-1.67087 0.82155,-2.59211 0.58084,-5.22648 0.48271,-10.46256 0.13021,-15.66347 2.08549,-0.66344 4.25322,-2.80708 6.34474,-6.03556 0.71584,-1.24272 1.47544,-2.49563 1.74315,-3.90028 1.06132,-6.09412 0.69008,-12.21259 0.2096,-18.30036 0.69325,-0.27628 1.3465,-0.65785 1.98802,-1.06081 0.0603,-0.0397 0.12068,-0.0791 0.18737,-0.11877 l 0.073,0.60297 c 1.0181,-0.32691 0.49887,-0.16006 1.56149,-0.49875 1.82505,-0.82663 3.08485,-2.25945 4.13128,-3.96064 1.22233,-2.1854 2.43354,-4.37082 2.90863,-6.88786 1.85969,-9.23721 -0.0635,-17.90508 -1.61993,-27.66929 -0.4097,-2.62171 -0.84823,-5.23802 -1.36685,-7.84346 -0.5408,-2.63488 -1.12862,-5.26497 -1.50589,-7.92628 -0.39954,-2.33707 -0.84188,-4.67057 -1.43892,-6.97064 -0.62402,-2.2929 -1.3243,-4.57032 -2.26523,-6.76223 -1.02829,-2.34494 -2.24776,-4.58912 -3.52983,-6.80795 -1.17596,-1.95925 -2.21188,-4.00663 -3.6136,-5.82412 -1.4507,-1.94042 -3.1678,-3.65908 -4.63561,-5.58845 -1.72505,-1.80472 -3.41513,-3.66934 -5.43268,-5.14811 -12.11847,-9.77619 -34.98165,-29.78739 -37.82995,-45.04139 -0.53987,-3.14964 -0.0508,-6.29753 1.43193,-10.37704 5.82806,-15.92969 21.96252,-23.34094 39.871,-19.60186 10.09713,2.18486 19.23872,8.17884 20.70304,18.96672 1.08259,8.58568 -3.25129,18.03719 -10.0387,23.58686 -1.61612,1.40589 -3.28876,2.74442 -5.03892,3.97046 -1.69008,1.23659 -3.50599,2.29848 -5.36092,3.2418 l -0.54018,19.55597 c 0.65959,-0.30297 1.3424,-0.55258 1.98675,-0.89127 1.27441,-0.66966 2.41195,-1.62056 3.65965,-2.33884 1.7038,-1.26854 3.42977,-2.4995 5.14659,-3.74934 1.59989,-1.32265 3.21473,-2.63609 4.62097,-4.17691 14.67081,-18.29585 9.94186,-43.83656 5.00329,-61.31661 -0.75769,-2.60881 -2.18993,-4.89297 -3.7883,-7.06614 -6.40349,-7.52598 -15.45521,-10.90829 -24.61935,-11.08715 -0.36775,-0.006 -0.73581,-0.01 -1.10387,-0.006 z m -65.69236,232.98512 v -0.019 0 z m 0,-0.019 0.0349,-0.1645 h -0.0349 c 0,0.0549 0,0.10988 -0.0349,0.1645 z m 68.18338,-206.05326 -9.9082,9.17017 9.03266,9.73519 -9.60143,8.88576 9.32197,10.04682 9.90852,-9.16921 -9.03266,-9.73612 9.60175,-8.88575 z m -41.33849,341.47918 -16.94652,2.1236 1.00225,16.28794 -16.42095,2.0577 1.03497,16.80883 16.94589,-2.12366 -1.00226,-16.28785 16.42095,-2.057 z"
       id="path3511"
       inkscape:connector-curvature="0"
       sodipodi:nodetypes="ccccccccccccccccccccccccccccccccccccccccccccccccccccccccccccccccccccccccccccccccccccccccccccccccccccccccccccccccccccccccccccccccccccccccccc" />
    <path
       style="opacity:1;fill:#c9a95a;fill-opacity:1;stroke:none;stroke-width:3.91583276;stroke-linecap:butt;stroke-linejoin:miter;stroke-miterlimit:4;stroke-dasharray:none;stroke-dashoffset:0;stroke-opacity:1"
       d="M 529.07006,-75.489198 A 267.30484,55.693123 0 0 0 279.60273,-39.621556 316.36734,63.907155 0 0 1 529.07006,-64.350819 316.36734,63.907155 0 0 1 778.73048,-39.648517 267.30484,55.693123 0 0 0 529.07006,-75.489198 Z"
       id="path2755"
       inkscape:connector-curvature="0" />
    <path
       style="font-style:normal;font-variant:normal;font-weight:bold;font-stretch:normal;font-size:medium;line-height:1.25;font-family:'Cinzel Decorative';-inkscape-font-specification:'Cinzel Decorative Bold';letter-spacing:9.63575649px;word-spacing:0px;fill:#ffffff;fill-opacity:1;stroke:none;stroke-width:0.99999982"
       d="M 1562.0859 2814.0645 C 1561.3241 2822.1913 1554.9754 2838.8263 1543.0391 2863.9688 L 1455.041 3063.2031 C 1451.2316 3070.3141 1446.4056 3075.6476 1440.5645 3079.2031 C 1434.7233 3082.7586 1428.8822 3084.5352 1423.041 3084.5352 L 1419.6113 3084.5352 L 1419.6113 3088.3457 L 1501.1348 3088.3457 L 1501.1348 3084.5352 L 1498.0879 3084.5352 C 1492.2467 3084.5352 1487.9284 3082.8855 1485.1348 3079.584 C 1482.5951 3076.0285 1481.3262 3072.8522 1481.3262 3070.0586 C 1481.3262 3067.011 1481.9606 3063.8367 1483.2305 3060.5352 L 1503.0391 3013.6797 L 1592.1797 3013.6797 L 1610.8477 3060.5352 C 1612.1175 3063.5827 1612.752 3066.6302 1612.752 3069.6777 C 1612.752 3072.7253 1611.3541 3076.0285 1608.5605 3079.584 C 1606.0209 3082.8855 1601.9583 3084.5352 1596.3711 3084.5352 L 1592.9434 3084.5352 L 1592.9434 3088.3457 L 1714.4648 3088.3457 L 1714.4648 3084.5352 L 1711.0352 3084.5352 C 1704.94 3084.5352 1698.972 3082.7586 1693.1309 3079.2031 C 1687.2897 3075.3937 1682.4657 3069.8064 1678.6562 3062.4414 L 1565.5137 2814.0645 L 1562.0859 2814.0645 z M 2201.4141 2814.8262 C 2197.6046 2816.35 2191.0002 2817.8727 2181.6035 2819.3965 C 2172.2069 2820.9203 2163.5721 2821.6836 2155.6992 2821.6836 L 2009.7969 2821.6836 L 2009.7969 2825.4922 L 2014.75 2825.4922 C 2018.8134 2825.4922 2022.7492 2826.5073 2026.5586 2828.5391 C 2034.1775 2832.8564 2038.369 2839.4609 2039.1309 2848.3496 L 2039.1309 3060.5352 C 2038.8769 3067.1382 2036.337 3072.8524 2031.5117 3077.6777 C 2026.9404 3082.2491 2021.353 3084.5352 2014.75 3084.5352 L 2009.7969 3084.5352 L 2009.7969 3088.3457 L 2207.127 3088.3457 L 2224.6504 3010.6328 L 2220.8418 3010.6328 C 2214.7467 3030.188 2205.3505 3045.2984 2192.6523 3055.9648 C 2180.2081 3066.6313 2164.7151 3071.9648 2146.1758 3071.9648 L 2096.2715 3071.9648 L 2096.2715 2964.918 L 2146.9375 2964.918 C 2153.0326 2965.1719 2158.6199 2966.6966 2163.6992 2969.4902 C 2173.8578 2975.5854 2178.9375 2984.9815 2178.9375 2997.6797 L 2178.9375 3000.7266 L 2182.7461 3000.7266 L 2182.7461 2912.7285 L 2178.9375 2912.7285 L 2178.9375 2916.1582 C 2178.9375 2925.3009 2175.89 2933.0454 2169.7949 2939.3945 C 2163.6998 2945.4897 2155.9533 2948.664 2146.5566 2948.918 L 2096.2715 2948.918 L 2096.2715 2838.0645 L 2160.2715 2838.0645 C 2171.6999 2838.5724 2180.7153 2842.3812 2187.3184 2849.4922 C 2194.1754 2856.3492 2197.6035 2865.4915 2197.6035 2876.9199 L 2197.6035 2881.4922 L 2201.4141 2881.4922 L 2201.4141 2814.8262 z M 2476.666 2814.8262 C 2472.8566 2816.35 2466.2541 2817.8727 2456.8574 2819.3965 C 2447.4608 2820.9203 2438.826 2821.6836 2430.9531 2821.6836 L 2285.0508 2821.6836 L 2285.0508 2825.4922 L 2290.0039 2825.4922 C 2294.0674 2825.4922 2298.0031 2826.5073 2301.8125 2828.5391 C 2309.4314 2832.8564 2313.6229 2839.4609 2314.3848 2848.3496 L 2314.3848 3060.5352 C 2314.1308 3067.1382 2311.5909 3072.8524 2306.7656 3077.6777 C 2302.1943 3082.2491 2296.607 3084.5352 2290.0039 3084.5352 L 2285.0508 3084.5352 L 2285.0508 3088.3457 L 2482.3809 3088.3457 L 2499.9043 3010.6328 L 2496.0957 3010.6328 C 2490.0006 3030.188 2480.6025 3045.2984 2467.9043 3055.9648 C 2455.4601 3066.6313 2439.9691 3071.9648 2421.4297 3071.9648 L 2371.5254 3071.9648 L 2371.5254 2964.918 L 2422.1914 2964.918 C 2428.2865 2965.1719 2433.8738 2966.6966 2438.9531 2969.4902 C 2449.1117 2975.5854 2454.1914 2984.9815 2454.1914 2997.6797 L 2454.1914 3000.7266 L 2458 3000.7266 L 2458 2912.7285 L 2454.1914 2912.7285 L 2454.1914 2916.1582 C 2454.1914 2925.3009 2451.1439 2933.0454 2445.0488 2939.3945 C 2438.9537 2945.4897 2431.2072 2948.664 2421.8105 2948.918 L 2371.5254 2948.918 L 2371.5254 2838.0645 L 2435.5254 2838.0645 C 2446.9538 2838.5724 2455.9692 2842.3812 2462.5723 2849.4922 C 2469.4293 2856.3492 2472.8574 2865.4915 2472.8574 2876.9199 L 2472.8574 2881.4922 L 2476.666 2881.4922 L 2476.666 2814.8262 z M 1844.8984 2816.3496 C 1821.2798 2816.3496 1801.8531 2822.8252 1786.6152 2835.7773 C 1771.6314 2848.7295 1764.1387 2867.143 1764.1387 2891.0156 C 1764.1387 2902.19 1766.9323 2913.2378 1772.5195 2924.1582 C 1778.3607 2934.8247 1787.8837 2943.967 1801.0898 2951.5859 L 1867.375 2995.3945 C 1887.6921 3006.5689 1897.8496 3019.647 1897.8496 3034.6309 C 1897.8496 3047.0751 1893.0256 3057.3614 1883.375 3065.4883 C 1873.9783 3073.6151 1860.7714 3077.6777 1843.7559 3077.6777 C 1821.915 3077.6777 1804.6454 3071.2022 1791.9473 3058.25 C 1779.503 3045.0439 1773.2812 3029.6798 1773.2812 3012.1562 C 1773.2813 3010.1245 1773.4081 3008.0923 1773.6621 3006.0605 L 1770.2344 3006.0605 C 1762.3615 3019.0127 1758.4238 3034.6306 1758.4238 3052.916 C 1758.4238 3059.773 1759.3141 3065.6161 1761.0918 3070.4414 C 1767.9488 3077.5524 1778.6139 3083.2646 1793.0898 3087.582 C 1807.8197 3091.6455 1823.8203 3093.6777 1841.0898 3093.6777 C 1871.5655 3093.6777 1895.9451 3086.5677 1914.2305 3072.3457 C 1932.7698 3057.8698 1942.041 3037.0433 1942.041 3009.8691 C 1942.041 2984.2188 1930.6126 2964.7921 1907.7559 2951.5859 L 1834.9941 2904.3477 C 1817.2167 2893.9351 1808.3281 2882.6336 1808.3281 2870.4434 C 1808.3281 2863.0784 1810.6142 2856.4759 1815.1855 2850.6348 C 1824.0743 2838.4445 1838.4232 2832.3496 1858.2324 2832.3496 C 1874.4861 2832.3496 1887.4373 2836.4122 1897.0879 2844.5391 C 1906.9925 2852.4119 1911.9453 2862.9521 1911.9453 2876.1582 L 1915.7559 2876.1582 L 1920.707 2820.1582 L 1896.707 2820.1582 C 1876.136 2817.6186 1858.8665 2816.3496 1844.8984 2816.3496 z M 1155.1191 2821.6836 L 1155.1191 2825.4922 L 1160.4531 2825.4922 C 1167.8181 2825.4922 1174.9301 2827.6514 1181.7871 2831.9688 C 1188.8981 2836.0322 1194.3585 2841.1119 1198.168 2847.207 L 1270.9277 2966.8223 L 1270.9277 3060.916 C 1270.6738 3067.5191 1268.1339 3073.1064 1263.3086 3077.6777 C 1258.7373 3082.2491 1253.1499 3084.5352 1246.5469 3084.5352 L 1241.5957 3084.5352 L 1241.5957 3088.3457 L 1357.4023 3088.3457 L 1357.0215 3084.5352 L 1352.4492 3084.5352 C 1345.8462 3084.5352 1340.132 3082.2491 1335.3066 3077.6777 C 1330.4813 3072.8524 1328.0703 3067.1382 1328.0703 3060.5352 L 1328.0703 2967.2051 L 1403.1152 2847.5879 C 1407.1787 2841.4928 1412.6391 2836.2861 1419.4961 2831.9688 C 1426.3531 2827.6514 1433.592 2825.4922 1441.2109 2825.4922 L 1446.543 2825.4922 L 1446.543 2821.6836 L 1355.8789 2821.6836 L 1355.8789 2825.4922 L 1360.4492 2825.4922 C 1366.0364 2825.4922 1370.3548 2828.1589 1373.4023 2833.4922 C 1375.1801 2836.0318 1376.0684 2838.6986 1376.0684 2841.4922 C 1376.0684 2844.0318 1375.307 2846.5717 1373.7832 2849.1113 L 1317.4023 2948.1562 L 1262.9277 2849.1113 C 1261.6579 2846.5717 1261.0234 2844.0318 1261.0234 2841.4922 C 1261.0234 2838.6986 1261.7848 2835.9049 1263.3086 2833.1113 C 1266.3562 2828.0321 1270.6745 2825.4922 1276.2617 2825.4922 L 1281.2129 2825.4922 L 1281.2129 2821.6836 L 1155.1191 2821.6836 z M 2561.4473 2821.6836 L 2561.4473 2825.4922 L 2566.4004 2825.4922 C 2573.0035 2825.4922 2578.5908 2827.9052 2583.1621 2832.7305 C 2587.9874 2837.3018 2590.5273 2842.8891 2590.7812 2849.4922 L 2590.7812 3060.916 C 2590.5273 3065.2334 2589.3833 3069.1711 2587.3516 3072.7266 C 2582.5262 3080.5994 2575.5431 3084.5352 2566.4004 3084.5352 L 2561.4473 3084.5352 L 2561.4473 3088.3457 L 2677.2559 3088.3457 L 2677.2559 3084.5352 L 2672.3027 3084.5352 C 2667.9854 3084.5352 2663.9227 3083.52 2660.1133 3081.4883 C 2652.2404 3076.9169 2648.1759 3069.9318 2647.9219 3060.5352 L 2647.9219 2838.4453 L 2649.0645 2838.4453 L 2665.4453 2838.4453 L 2676.875 2838.4453 C 2690.0811 2838.6993 2700.8731 2843.5233 2709.2539 2852.9199 C 2717.6347 2862.0626 2721.8262 2877.0461 2721.8262 2897.8711 C 2721.8262 2900.9187 2721.3186 2905.1101 2720.3027 2910.4434 C 2717.2552 2925.9352 2711.2872 2937.1098 2702.3984 2943.9668 C 2693.7637 2950.8238 2683.7311 2954.252 2672.3027 2954.252 L 2660.4941 2954.252 L 2660.4941 2958.0605 C 2670.9066 2959.8383 2679.5414 2968.3462 2686.3984 2983.584 C 2688.6841 2989.9331 2693.3812 3000.6001 2700.4922 3015.584 C 2707.6032 3030.3139 2713.4443 3041.3616 2718.0156 3048.7266 C 2727.1583 3063.2025 2738.9694 3073.4889 2753.4453 3079.584 C 2767.9213 3085.4252 2785.9521 3088.3457 2807.5391 3088.3457 L 2844.8711 3088.3457 L 2844.8711 3084.5352 C 2834.9665 3084.2812 2826.7124 3082.122 2820.1094 3078.0586 C 2806.9033 3069.6778 2786.5863 3043.5197 2759.1582 2999.584 C 2747.9838 2982.0605 2735.0326 2970.8859 2720.3027 2966.0605 C 2734.0168 2964.5368 2745.699 2959.9666 2755.3496 2952.3477 C 2765.2542 2944.7287 2772.2374 2935.8402 2776.3008 2925.6816 C 2780.6182 2915.5231 2782.7773 2904.4754 2782.7773 2892.5391 C 2782.7773 2880.3488 2780.2375 2869.5549 2775.1582 2860.1582 C 2770.0789 2850.5076 2763.2226 2843.0149 2754.5879 2837.6816 C 2737.5723 2827.0152 2716.7458 2821.6836 2692.1113 2821.6836 L 2561.4473 2821.6836 z M 1548.752 2903.9668 L 1585.7051 2997.6797 L 1509.5156 2997.6797 L 1548.752 2903.9668 z "
       transform="matrix(0.26458333,0,0,0.26458333,0,-761.33335)"
       id="path2041" />
    <path
       style="font-style:normal;font-variant:normal;font-weight:bold;font-stretch:normal;font-size:medium;line-height:1.25;font-family:Amiri;-inkscape-font-specification:'Amiri Bold';letter-spacing:6.53084373px;word-spacing:0px;fill:#c9a95a;fill-opacity:1;stroke:none;stroke-width:0.99999982"
       d="M 2237.6172 3210.4355 C 2237.0883 3210.4355 2236.5582 3210.5676 2236.0293 3210.832 L 2232.459 3235.1641 C 2232.6353 3235.3404 2233.1653 3235.5374 2234.0469 3235.7578 C 2234.9284 3235.9782 2235.6779 3236.0898 2236.2949 3236.0898 C 2237.0883 3236.0898 2237.529 3235.8685 2237.6172 3235.4277 C 2238.2784 3231.02 2239.9742 3227.1409 2242.707 3223.791 C 2245.4398 3220.4411 2248.4598 3218.7676 2251.7656 3218.7676 L 2264.0625 3218.7676 L 2264.0625 3280.6523 C 2264.0625 3287.1758 2263.7111 3291.3189 2263.0059 3293.082 C 2262.5651 3294.2721 2259.7441 3295.0642 2254.543 3295.4609 C 2254.2344 3295.9458 2254.0801 3296.7845 2254.0801 3297.9746 C 2254.1241 3299.1647 2254.2785 3299.9568 2254.543 3300.3535 C 2260.5375 3299.7364 2266.7522 3299.4277 2273.1875 3299.4277 C 2279.7991 3299.4277 2286.1012 3299.7364 2292.0957 3300.3535 C 2292.3602 3299.9568 2292.4941 3299.1647 2292.4941 3297.9746 C 2292.5382 3296.7845 2292.4042 3295.9458 2292.0957 3295.4609 C 2286.8946 3295.0642 2284.0736 3294.2721 2283.6328 3293.082 C 2282.9276 3291.3189 2282.5762 3287.1758 2282.5762 3280.6523 L 2282.5762 3218.7676 L 2294.873 3218.7676 C 2298.1788 3218.7676 2301.1988 3220.4411 2303.9316 3223.791 C 2306.6644 3227.1409 2308.3603 3231.02 2309.0215 3235.4277 C 2309.1096 3235.8685 2309.5504 3236.0898 2310.3438 3236.0898 C 2310.9608 3236.0898 2311.7103 3235.9782 2312.5918 3235.7578 C 2313.4733 3235.5374 2314.0033 3235.3404 2314.1797 3235.1641 L 2310.6094 3210.832 C 2310.0804 3210.5676 2309.5504 3210.4355 2309.0215 3210.4355 C 2308.4926 3210.4355 2307.7228 3210.6569 2306.709 3211.0977 C 2305.6952 3211.4944 2304.2187 3211.9127 2302.2793 3212.3535 C 2300.384 3212.7502 2298.0464 3212.9492 2295.2695 3212.9492 L 2251.3691 3212.9492 C 2248.5923 3212.9492 2246.2343 3212.7502 2244.2949 3212.3535 C 2242.3555 3211.9127 2240.879 3211.4944 2239.8652 3211.0977 C 2238.8955 3210.6569 2238.1461 3210.4355 2237.6172 3210.4355 z M 2418.4219 3210.4355 C 2417.8929 3210.4355 2417.3649 3210.5676 2416.8359 3210.832 L 2413.2656 3235.1641 C 2413.442 3235.3404 2413.97 3235.5374 2414.8516 3235.7578 C 2415.7331 3235.9782 2416.4825 3236.0898 2417.0996 3236.0898 C 2417.893 3236.0898 2418.3337 3235.8685 2418.4219 3235.4277 C 2419.083 3231.02 2420.7809 3227.1409 2423.5137 3223.791 C 2426.2465 3220.4411 2429.2665 3218.7676 2432.5723 3218.7676 L 2444.8691 3218.7676 L 2444.8691 3280.6523 C 2444.8691 3287.1758 2444.5158 3291.3189 2443.8105 3293.082 C 2443.3698 3294.2721 2440.5488 3295.0642 2435.3477 3295.4609 C 2435.0391 3295.9458 2434.8848 3296.7845 2434.8848 3297.9746 C 2434.9289 3299.1647 2435.0832 3299.9568 2435.3477 3300.3535 C 2441.3422 3299.7364 2447.5588 3299.4277 2453.9941 3299.4277 C 2460.6057 3299.4277 2466.9078 3299.7364 2472.9023 3300.3535 C 2473.1668 3299.9568 2473.2988 3299.1647 2473.2988 3297.9746 C 2473.3429 3296.7845 2473.2109 3295.9458 2472.9023 3295.4609 C 2467.7012 3295.0642 2464.8802 3294.2721 2464.4395 3293.082 C 2463.7342 3291.3189 2463.3809 3287.1758 2463.3809 3280.6523 L 2463.3809 3218.7676 L 2475.6797 3218.7676 C 2478.9855 3218.7676 2482.0035 3220.4411 2484.7363 3223.791 C 2487.4691 3227.1409 2489.167 3231.02 2489.8281 3235.4277 C 2489.9163 3235.8685 2490.357 3236.0898 2491.1504 3236.0898 C 2491.7675 3236.0898 2492.5169 3235.9782 2493.3984 3235.7578 C 2494.2799 3235.5374 2494.808 3235.3404 2494.9844 3235.1641 L 2491.4141 3210.832 C 2490.8851 3210.5676 2490.3571 3210.4355 2489.8281 3210.4355 C 2489.2992 3210.4355 2488.5275 3210.6569 2487.5137 3211.0977 C 2486.4999 3211.4944 2485.0234 3211.9127 2483.084 3212.3535 C 2481.1887 3212.7502 2478.853 3212.9492 2476.0762 3212.9492 L 2432.1758 3212.9492 C 2429.3989 3212.9492 2427.039 3212.7502 2425.0996 3212.3535 C 2423.1602 3211.9127 2421.6837 3211.4944 2420.6699 3211.0977 C 2419.7002 3210.6569 2418.9508 3210.4355 2418.4219 3210.4355 z M 2648.1543 3210.4355 C 2647.6254 3210.4355 2647.0973 3210.5676 2646.5684 3210.832 L 2642.998 3235.1641 C 2643.1743 3235.3404 2643.7024 3235.5374 2644.584 3235.7578 C 2645.4655 3235.9782 2646.215 3236.0898 2646.832 3236.0898 C 2647.6254 3236.0898 2648.0661 3235.8685 2648.1543 3235.4277 C 2648.8155 3231.02 2650.5133 3227.1409 2653.2461 3223.791 C 2655.9789 3220.4411 2658.9969 3218.7676 2662.3027 3218.7676 L 2674.6016 3218.7676 L 2674.6016 3280.6523 C 2674.6016 3287.1758 2674.2482 3291.3189 2673.543 3293.082 C 2673.1022 3294.2721 2670.2812 3295.0642 2665.0801 3295.4609 C 2664.7715 3295.9458 2664.6172 3296.7845 2664.6172 3297.9746 C 2664.6613 3299.1647 2664.8156 3299.9568 2665.0801 3300.3535 C 2671.0746 3299.7364 2677.2893 3299.4277 2683.7246 3299.4277 C 2690.3362 3299.4277 2696.6402 3299.7364 2702.6348 3300.3535 C 2702.8992 3299.9568 2703.0312 3299.1647 2703.0312 3297.9746 C 2703.0753 3296.7845 2702.9433 3295.9458 2702.6348 3295.4609 C 2697.4336 3295.0642 2694.6127 3294.2721 2694.1719 3293.082 C 2693.4666 3291.3189 2693.1133 3287.1758 2693.1133 3280.6523 L 2693.1133 3218.7676 L 2705.4121 3218.7676 C 2708.7179 3218.7676 2711.736 3220.4411 2714.4688 3223.791 C 2717.2016 3227.1409 2718.8994 3231.02 2719.5605 3235.4277 C 2719.6487 3235.8685 2720.0894 3236.0898 2720.8828 3236.0898 C 2721.4999 3236.0898 2722.2493 3235.9782 2723.1309 3235.7578 C 2724.0123 3235.5374 2724.5404 3235.3404 2724.7168 3235.1641 L 2721.1465 3210.832 C 2720.6176 3210.5676 2720.0895 3210.4355 2719.5605 3210.4355 C 2719.0316 3210.4355 2718.2599 3210.6569 2717.2461 3211.0977 C 2716.2323 3211.4944 2714.7558 3211.9127 2712.8164 3212.3535 C 2710.9211 3212.7502 2708.5855 3212.9492 2705.8086 3212.9492 L 2661.9062 3212.9492 C 2659.1294 3212.9492 2656.7714 3212.7502 2654.832 3212.3535 C 2652.8926 3211.9127 2651.4161 3211.4944 2650.4023 3211.0977 C 2649.4326 3210.6569 2648.6832 3210.4355 2648.1543 3210.4355 z M 2173 3211.2305 C 2168.46 3211.2305 2164.0286 3212.2663 2159.709 3214.3379 C 2155.3894 3216.3655 2151.819 3219.2515 2148.998 3222.998 C 2146.2212 3226.7446 2144.834 3230.8004 2144.834 3235.1641 C 2144.834 3235.693 2144.8563 3236.2211 2144.9004 3236.75 C 2145.253 3243.0531 2148.0517 3248.563 2153.2969 3253.2793 C 2155.104 3254.9542 2158.7171 3257.5985 2164.1387 3261.2129 C 2164.4031 3261.3892 2165.2846 3261.9843 2166.7832 3262.998 C 2168.3259 3264.0118 2169.4064 3264.7389 2170.0234 3265.1797 C 2170.6846 3265.6205 2171.7427 3266.3922 2173.1973 3267.4941 C 2174.6518 3268.5961 2175.7322 3269.4998 2176.4375 3270.2051 C 2177.1868 3270.9103 2178.1129 3271.8364 2179.2148 3272.9824 C 2180.3168 3274.1285 2181.1312 3275.1865 2181.6602 3276.1562 C 2182.1891 3277.0819 2182.6521 3278.14 2183.0488 3279.3301 C 2183.4896 3280.4761 2183.709 3281.6216 2183.709 3282.7676 C 2183.709 3287.1753 2182.4985 3290.4147 2180.0742 3292.4863 C 2177.65 3294.558 2174.5853 3295.5937 2170.8828 3295.5938 C 2168.0619 3295.5937 2165.3302 3294.8443 2162.6855 3293.3457 C 2160.085 3291.803 2157.8814 3289.9081 2156.0742 3287.6602 C 2154.3111 3285.4122 2152.8327 3283.1193 2151.6426 3280.7832 C 2150.4966 3278.4471 2149.7695 3276.3328 2149.4609 3274.4375 C 2149.3287 3273.7322 2148.756 3273.3789 2147.7422 3273.3789 C 2147.3455 3273.3789 2146.6631 3273.5983 2145.6934 3274.0391 C 2144.7677 3274.4798 2144.1727 3274.8779 2143.9082 3275.2305 C 2144.0845 3277.4784 2144.5029 3281.1362 2145.1641 3286.2051 C 2145.8252 3291.2299 2146.4649 3295.0643 2147.082 3297.709 C 2156.9113 3300.001 2165.2849 3301.1484 2172.2051 3301.1484 C 2177.0977 3301.1484 2181.7262 3300.1553 2186.0898 3298.1719 C 2190.4535 3296.1443 2194.0239 3293.236 2196.8008 3289.4453 C 2199.6217 3285.6106 2201.0332 3281.3577 2201.0332 3276.6855 C 2201.0332 3275.1428 2200.8992 3273.6644 2200.6348 3272.2539 C 2200.4144 3270.7993 2200.1503 3269.5219 2199.8418 3268.4199 C 2199.5773 3267.2739 2199.092 3266.1061 2198.3867 3264.916 C 2197.7256 3263.7259 2197.1751 3262.7571 2196.7344 3262.0078 C 2196.2936 3261.2144 2195.5665 3260.3107 2194.5527 3259.2969 C 2193.539 3258.2831 2192.7672 3257.5337 2192.2383 3257.0488 C 2191.7534 3256.5199 2190.872 3255.7928 2189.5938 3254.8672 C 2188.3155 3253.9416 2187.4564 3253.3242 2187.0156 3253.0156 C 2186.5749 3252.7071 2185.6488 3252.0897 2184.2383 3251.1641 C 2182.8278 3250.2384 2181.9464 3249.6657 2181.5938 3249.4453 C 2179.3899 3247.9908 2177.6494 3246.823 2176.3711 3245.9414 C 2175.1369 3245.0158 2173.5061 3243.7363 2171.4785 3242.1055 C 2169.451 3240.4305 2167.8648 3238.954 2166.7188 3237.6758 C 2165.6168 3236.3535 2164.6237 3234.8546 2163.7422 3233.1797 C 2162.8607 3231.5047 2162.4199 3229.8739 2162.4199 3228.2871 C 2162.4199 3224.232 2163.5227 3221.3013 2165.7266 3219.4941 C 2167.9745 3217.687 2170.6188 3216.7832 2173.6602 3216.7832 C 2176.0844 3216.7832 2178.3773 3217.4656 2180.5371 3218.832 C 2182.6969 3220.1984 2184.4821 3221.9409 2185.8926 3224.0566 C 2187.3471 3226.1283 2188.5373 3228.2649 2189.4629 3230.4688 C 2190.3885 3232.6726 2190.9836 3234.7665 2191.248 3236.75 C 2191.4243 3237.3671 2192.7465 3237.6758 2195.2148 3237.6758 C 2195.7878 3237.6758 2196.2713 3237.4117 2196.668 3236.8828 C 2196.2272 3227.8029 2195.7438 3220.4854 2195.2148 3214.9316 C 2194.0688 3214.6672 2192.1943 3214.2488 2189.5938 3213.6758 C 2187.0373 3213.1028 2185.0977 3212.6844 2183.7754 3212.4199 C 2182.4972 3212.1555 2180.844 3211.8914 2178.8164 3211.627 C 2176.7888 3211.3625 2174.8512 3211.2305 2173 3211.2305 z M 1813.6348 3211.627 C 1807.4639 3211.627 1801.5579 3212.8171 1795.916 3215.1973 C 1790.2741 3217.5774 1785.4039 3220.7945 1781.3047 3224.8496 C 1777.2055 3228.9047 1773.9438 3233.7526 1771.5195 3239.3945 C 1769.0953 3245.0364 1767.8828 3250.9871 1767.8828 3257.2461 C 1767.8828 3265.4004 1769.932 3272.8276 1774.0312 3279.5273 C 1778.1745 3286.2271 1783.7068 3291.4507 1790.627 3295.1973 C 1797.5912 3298.8998 1805.1727 3300.75 1813.3711 3300.75 C 1817.1618 3300.75 1820.9515 3300.3986 1824.7422 3299.6934 C 1828.5328 3298.9881 1831.4431 3298.3037 1833.4707 3297.6426 C 1835.5424 3296.9814 1838.4953 3295.9456 1842.3301 3294.5352 C 1843.1675 3294.1825 1844.2684 3291.0548 1845.6348 3285.1484 C 1847.0452 3279.2421 1847.752 3275.6717 1847.752 3274.4375 C 1846.5619 3273.3796 1845.0184 3272.8496 1843.123 3272.8496 C 1842.9467 3273.5989 1842.5284 3274.8114 1841.8672 3276.4863 C 1841.2501 3278.1613 1840.1697 3280.3425 1838.627 3283.0312 C 1837.1283 3285.6759 1835.5421 3287.7475 1833.8672 3289.2461 C 1829.768 3293.0368 1824.3027 3294.9336 1817.4707 3294.9336 C 1812.6663 3294.9336 1808.3892 3293.7435 1804.6426 3291.3633 C 1800.896 3288.9831 1797.9207 3285.7864 1795.7168 3281.7754 C 1793.5129 3277.7643 1791.8394 3273.3572 1790.6934 3268.5527 C 1789.5914 3263.7042 1789.0391 3258.6127 1789.0391 3253.2793 C 1789.0391 3248.4749 1789.5244 3244.0007 1790.4941 3239.8574 C 1791.4638 3235.6701 1792.918 3231.858 1794.8574 3228.4199 C 1796.8409 3224.9819 1799.5299 3222.2706 1802.9238 3220.2871 C 1806.3619 3218.3036 1810.3283 3217.3125 1814.8242 3217.3125 C 1818.3504 3217.3125 1821.5694 3217.7979 1824.4785 3218.7676 C 1827.3876 3219.7373 1829.7232 3220.9051 1831.4863 3222.2715 C 1833.2494 3223.5938 1834.7929 3225.1577 1836.1152 3226.9648 C 1837.4816 3228.772 1838.4504 3230.3378 1839.0234 3231.6602 C 1839.5964 3232.9825 1840.0372 3234.2823 1840.3457 3235.5605 C 1840.6983 3235.9132 1841.3157 3236.0898 1842.1973 3236.0898 C 1842.9907 3236.0898 1843.7624 3235.8685 1844.5117 3235.4277 C 1845.261 3234.9429 1845.6348 3234.5022 1845.6348 3234.1055 C 1845.6348 3233.4884 1844.8854 3230.0277 1843.3867 3223.7246 C 1841.8881 3217.3774 1841.1387 3214.1827 1841.1387 3214.1387 C 1832.8962 3212.4637 1823.7285 3211.627 1813.6348 3211.627 z M 2817.4336 3212.0234 C 2815.8027 3212.0675 2808.7513 3212.2442 2796.2773 3212.5527 C 2783.8475 3212.8172 2776.5747 3212.9492 2774.459 3212.9492 C 2765.8198 3212.9492 2759.5158 3212.8172 2755.5488 3212.5527 C 2755.2844 3212.9494 2755.13 3213.7416 2755.0859 3214.9316 C 2755.0859 3216.1217 2755.2403 3216.9605 2755.5488 3217.4453 C 2760.7941 3217.842 2763.615 3218.5468 2764.0117 3219.5605 C 2764.717 3221.3236 2765.0703 3225.4668 2765.0703 3231.9902 L 2765.0703 3280.6523 C 2765.0703 3287.1758 2764.717 3291.3189 2764.0117 3293.082 C 2763.571 3294.184 2760.75 3294.9334 2755.5488 3295.3301 C 2755.2403 3295.8149 2755.0859 3296.6517 2755.0859 3297.8418 C 2755.13 3299.0319 2755.2844 3299.826 2755.5488 3300.2227 C 2758.9869 3300.1345 2780.4966 3300.0898 2820.0781 3300.0898 C 2820.2544 3298.9879 2820.5204 3297.7531 2820.873 3296.3867 C 2821.2257 3294.9762 2821.7091 3293.3231 2822.3262 3291.4277 C 2822.9432 3289.5324 2823.4286 3288.0355 2823.7812 3286.9336 C 2824.1779 3285.8317 2824.7953 3284.0892 2825.6328 3281.709 C 2826.5143 3279.3288 2827.0424 3277.8746 2827.2188 3277.3457 C 2827.0424 3277.1695 2826.5143 3276.9928 2825.6328 3276.8164 C 2824.7513 3276.64 2823.9572 3276.5527 2823.252 3276.5527 C 2822.1501 3276.5527 2821.5327 3276.8168 2821.4004 3277.3457 C 2819.1965 3283.1639 2816.8163 3287.3517 2814.2598 3289.9082 C 2811.3507 3292.8173 2807.2522 3294.2715 2801.9629 3294.2715 L 2793.2363 3294.2715 C 2791.2969 3294.2715 2789.4671 3294.0521 2787.748 3293.6113 C 2786.029 3293.1265 2784.9933 3292.4644 2784.6406 3291.627 C 2783.9354 3289.8639 2783.582 3286.3808 2783.582 3281.1797 L 2783.582 3260.6836 C 2783.582 3259.4494 2786.7564 3258.834 2793.1035 3258.834 C 2798.3047 3258.834 2801.6537 3259.1427 2803.1523 3259.7598 C 2805.0917 3260.6413 2806.6352 3263.3283 2807.7812 3267.8242 C 2807.9135 3268.5295 2808.5309 3268.8828 2809.6328 3268.8828 C 2810.867 3268.8828 2811.6611 3268.7061 2812.0137 3268.3535 L 2812.0137 3242.9648 C 2811.5729 3242.5241 2810.7342 3242.3047 2809.5 3242.3047 C 2808.5744 3242.3047 2808.0463 3242.6561 2807.9141 3243.3613 C 2806.8562 3247.2401 2805.6214 3249.7524 2804.2109 3250.8984 C 2802.8005 3252.0445 2800.1562 3252.6191 2796.2773 3252.6191 L 2789.2695 3252.6191 C 2787.815 3252.6191 2786.4928 3252.4852 2785.3027 3252.2207 C 2784.1567 3251.9122 2783.582 3251.5608 2783.582 3251.1641 L 2783.582 3227.4941 C 2783.582 3223.1745 2783.8034 3220.4856 2784.2441 3219.4277 C 2784.729 3218.3699 2786.9326 3217.8418 2790.8555 3217.8418 L 2801.8301 3217.8418 C 2803.7695 3217.8418 2805.4896 3218.1709 2806.9883 3218.832 C 2808.531 3219.4932 2809.8531 3220.5086 2810.9551 3221.875 C 2812.1011 3223.1973 2813.0495 3224.5622 2813.7988 3225.9727 C 2814.5481 3227.3831 2815.3179 3229.1256 2816.1113 3231.1973 C 2816.3758 3231.9025 2817.0825 3232.2539 2818.2285 3232.2539 C 2819.8153 3232.2539 2820.8288 3232.0345 2821.2695 3231.5938 C 2821.0492 3230.4477 2820.6308 3228.5082 2820.0137 3225.7754 C 2819.4407 3222.9985 2818.933 3220.5086 2818.4922 3218.3047 C 2818.0514 3216.1008 2817.6981 3214.0069 2817.4336 3212.0234 z M 2077.9023 3212.1543 C 2077.682 3212.5069 2077.55 3213.102 2077.5059 3213.9395 C 2077.5059 3214.7328 2077.5485 3215.4619 2077.6367 3216.123 C 2077.7249 3216.7401 2077.8142 3217.0469 2077.9023 3217.0469 C 2079.5773 3217.0469 2081.6712 3217.2905 2084.1836 3217.7754 C 2086.696 3218.2162 2088.1725 3218.9433 2088.6133 3219.957 C 2089.054 3220.8827 2089.4055 3223.1959 2089.6699 3226.8984 C 2089.9344 3230.6009 2090.0664 3233.9296 2090.0664 3236.8828 L 2090.0664 3261.6094 C 2090.0664 3264.6066 2089.9791 3266.4142 2089.8027 3267.0312 C 2087.0258 3263.5491 2082.8604 3258.4595 2077.3066 3251.7598 C 2071.7529 3245.0159 2067.3234 3239.6157 2064.0176 3235.5605 C 2060.7558 3231.5054 2057.4495 3227.2303 2054.0996 3222.7344 C 2050.7938 3218.1944 2048.5455 3214.7114 2047.3555 3212.2871 C 2042.4188 3212.9042 2037.6156 3213.2129 2032.9434 3213.2129 C 2031.1362 3213.2129 2029.3287 3213.1682 2027.5215 3213.0801 C 2025.7584 3212.9478 2023.9285 3212.7935 2022.0332 3212.6172 C 2020.1379 3212.4409 2018.7934 3212.3312 2018 3212.2871 C 2017.6914 3212.6397 2017.5594 3213.5435 2017.6035 3214.998 C 2017.6917 3216.4526 2017.913 3217.1797 2018.2656 3217.1797 C 2019.3676 3217.1797 2020.9538 3217.4661 2023.0254 3218.0391 C 2025.1411 3218.568 2026.4633 3219.2077 2026.9922 3219.957 C 2028.579 3222.2931 2029.373 3226.2596 2029.373 3231.8574 L 2029.373 3278.668 C 2029.373 3281.2685 2029.2187 3283.9128 2028.9102 3286.6016 C 2028.6016 3289.2462 2028.2259 3291.0537 2027.7852 3292.0234 C 2027.3444 3293.0372 2025.8252 3293.874 2023.2246 3294.5352 C 2020.624 3295.1523 2018.6175 3295.4609 2017.207 3295.4609 C 2017.1188 3295.4609 2017.0315 3295.792 2016.9434 3296.4531 C 2016.8552 3297.0702 2016.8105 3297.7973 2016.8105 3298.6348 C 2016.8545 3299.4282 2016.9866 3300.0009 2017.207 3300.3535 C 2018.7938 3300.2654 2021.3061 3300.0683 2024.7441 3299.7598 C 2028.2262 3299.4512 2031.0919 3299.2969 2033.3398 3299.2969 C 2035.5878 3299.2969 2038.6728 3299.4735 2042.5957 3299.8262 C 2046.5186 3300.1347 2048.9862 3300.3094 2050 3300.3535 C 2050.1764 3299.8246 2050.2656 3299.0101 2050.2656 3297.9082 C 2050.2656 3296.7622 2050.089 3295.9031 2049.7363 3295.3301 C 2048.414 3295.3301 2046.3648 3295.0214 2043.5879 3294.4043 C 2040.8551 3293.7872 2039.2893 3292.9485 2038.8926 3291.8906 C 2038.54 3290.9209 2038.2109 3289.1153 2037.9023 3286.4707 C 2037.5938 3283.826 2037.4395 3281.3565 2037.4395 3279.0645 L 2037.4395 3231.1973 L 2091.2578 3297.4453 C 2092.8005 3299.4729 2094.1673 3300.4863 2095.3574 3300.4863 C 2097.2087 3300.4863 2098.3095 3300.3096 2098.6621 3299.957 C 2098.3095 3290.7889 2098.1328 3284.6189 2098.1328 3281.4453 L 2098.1328 3236.4863 C 2098.1328 3233.9298 2098.2649 3230.8002 2098.5293 3227.0977 C 2098.8379 3223.3952 2099.1465 3221.1023 2099.4551 3220.2207 C 2099.7636 3219.3832 2100.8217 3218.7231 2102.6289 3218.2383 C 2104.4361 3217.7094 2105.9796 3217.4007 2107.2578 3217.3125 C 2108.5361 3217.2243 2109.5942 3217.1797 2110.4316 3217.1797 C 2110.7842 3216.6067 2110.9609 3215.7699 2110.9609 3214.668 C 2110.9609 3213.522 2110.8717 3212.6832 2110.6953 3212.1543 C 2109.6815 3212.1984 2107.2139 3212.3974 2103.291 3212.75 C 2099.3681 3213.0585 2096.2812 3213.2129 2094.0332 3213.2129 C 2091.7853 3213.2129 2088.9216 3213.0585 2085.4395 3212.75 C 2082.0014 3212.4415 2079.4891 3212.2425 2077.9023 3212.1543 z M 1286.1152 3212.2871 C 1285.4541 3212.2871 1284.5726 3212.8822 1283.4707 3214.0723 C 1282.4128 3215.2624 1281.6634 3216.3428 1281.2227 3217.3125 L 1253.0566 3282.1055 C 1251.4698 3285.808 1249.9283 3288.8949 1248.4297 3291.3633 C 1247.8126 3292.333 1246.3565 3293.2795 1244.0645 3294.2051 C 1241.7724 3295.1307 1240.1416 3295.5937 1239.1719 3295.5938 C 1238.9073 3296.3431 1238.82 3297.2692 1238.9082 3298.3711 C 1238.9964 3299.429 1239.173 3300.089 1239.4375 3300.3535 C 1245.6083 3299.6483 1250.4115 3299.2969 1253.8496 3299.2969 C 1257.1995 3299.2969 1261.96 3299.6483 1268.1309 3300.3535 C 1268.3513 3300.045 1268.4629 3299.2975 1268.4629 3298.1074 C 1268.507 3296.8733 1268.3526 3295.9899 1268 3295.4609 C 1267.6033 3295.4609 1266.8966 3295.396 1265.8828 3295.2637 C 1264.9131 3295.0873 1263.79 3294.8437 1262.5117 3294.5352 C 1261.2776 3294.2266 1260.1748 3293.7655 1259.2051 3293.1484 C 1258.2794 3292.4873 1257.8184 3291.7602 1257.8184 3290.9668 C 1257.8184 3289.8208 1258.7872 3286.8231 1260.7266 3281.9746 C 1261.6963 3279.5063 1263.2825 3275.8039 1265.4863 3270.8672 C 1265.7067 3270.4264 1266.0154 3270.2051 1266.4121 3270.2051 C 1269.4975 3270.1169 1274.0814 3270.0723 1280.1641 3270.0723 C 1286.952 3270.0723 1291.1844 3270.1169 1292.8594 3270.2051 C 1293.1238 3270.2051 1293.4326 3270.3818 1293.7852 3270.7344 L 1295.7676 3275.4941 C 1297.0899 3278.6677 1298.412 3281.9294 1299.7344 3285.2793 C 1301.0567 3288.6292 1301.7188 3290.4814 1301.7188 3290.834 C 1301.7188 3291.6715 1301.3227 3292.4209 1300.5293 3293.082 C 1299.6477 3293.8313 1298.4353 3294.4264 1296.8926 3294.8672 C 1295.3939 3295.2639 1294.0048 3295.4609 1292.7266 3295.4609 C 1292.374 3295.4609 1292.1973 3296.19 1292.1973 3297.6445 C 1292.1973 3299.0991 1292.374 3300.0009 1292.7266 3300.3535 C 1293.564 3300.3095 1295.4162 3300.1775 1298.2812 3299.957 C 1301.1463 3299.7808 1303.8129 3299.6264 1306.2812 3299.4941 C 1308.7496 3299.3619 1310.8862 3299.2969 1312.6934 3299.2969 C 1314.9854 3299.2969 1318.3141 3299.4735 1322.6777 3299.8262 C 1327.0414 3300.1347 1329.6207 3300.3094 1330.4141 3300.3535 C 1330.6786 3300.089 1330.7659 3299.362 1330.6777 3298.1719 C 1330.6337 3296.9377 1330.457 3296.0339 1330.1484 3295.4609 C 1329.6195 3295.4609 1329.0021 3295.4183 1328.2969 3295.3301 C 1327.5916 3295.1978 1326.6452 3294.9765 1325.4551 3294.668 C 1324.265 3294.3594 1323.1399 3293.7867 1322.082 3292.9492 C 1321.0242 3292.0677 1320.2321 3291.0096 1319.7031 3289.7754 C 1319.3505 3288.8938 1318.7982 3287.462 1318.0488 3285.4785 C 1317.2995 3283.451 1316.6171 3281.7104 1316 3280.2559 L 1288.8926 3213.2129 C 1288.7603 3212.9925 1288.407 3212.7935 1287.834 3212.6172 C 1287.261 3212.3968 1286.6882 3212.2871 1286.1152 3212.2871 z M 1516.6406 3212.2871 C 1515.9795 3212.2871 1515.098 3212.8822 1513.9961 3214.0723 C 1512.9382 3215.2624 1512.1888 3216.3428 1511.748 3217.3125 L 1483.582 3282.1055 C 1481.9952 3285.808 1480.4537 3288.8949 1478.9551 3291.3633 C 1478.338 3292.333 1476.8819 3293.2795 1474.5898 3294.2051 C 1472.2978 3295.1307 1470.667 3295.5937 1469.6973 3295.5938 C 1469.4327 3296.3431 1469.3454 3297.2692 1469.4336 3298.3711 C 1469.5218 3299.429 1469.6984 3300.089 1469.9629 3300.3535 C 1476.1337 3299.6483 1480.9369 3299.2969 1484.375 3299.2969 C 1487.7249 3299.2969 1492.4854 3299.6483 1498.6562 3300.3535 C 1498.8767 3300.045 1498.9883 3299.2975 1498.9883 3298.1074 C 1499.0324 3296.8733 1498.878 3295.9899 1498.5254 3295.4609 C 1498.1287 3295.4609 1497.422 3295.396 1496.4082 3295.2637 C 1495.4385 3295.0873 1494.3153 3294.8437 1493.0371 3294.5352 C 1491.8029 3294.2266 1490.7002 3293.7655 1489.7305 3293.1484 C 1488.8048 3292.4873 1488.3437 3291.7602 1488.3438 3290.9668 C 1488.3438 3289.8208 1489.3126 3286.8231 1491.252 3281.9746 C 1492.2217 3279.5063 1493.8078 3275.8039 1496.0117 3270.8672 C 1496.2321 3270.4264 1496.5408 3270.2051 1496.9375 3270.2051 C 1500.0229 3270.1169 1504.6068 3270.0723 1510.6895 3270.0723 C 1517.4774 3270.0723 1521.7098 3270.1169 1523.3848 3270.2051 C 1523.6492 3270.2051 1523.9579 3270.3818 1524.3105 3270.7344 L 1526.293 3275.4941 C 1527.6153 3278.6677 1528.9375 3281.9294 1530.2598 3285.2793 C 1531.5821 3288.6292 1532.2441 3290.4814 1532.2441 3290.834 C 1532.2441 3291.6715 1531.8481 3292.4209 1531.0547 3293.082 C 1530.1732 3293.8313 1528.9607 3294.4264 1527.418 3294.8672 C 1525.9193 3295.2639 1524.5302 3295.4609 1523.252 3295.4609 C 1522.8993 3295.4609 1522.7227 3296.19 1522.7227 3297.6445 C 1522.7227 3299.0991 1522.8993 3300.0009 1523.252 3300.3535 C 1524.0894 3300.3095 1525.9416 3300.1775 1528.8066 3299.957 C 1531.6717 3299.7808 1534.3383 3299.6264 1536.8066 3299.4941 C 1539.275 3299.3619 1541.4116 3299.2969 1543.2188 3299.2969 C 1545.5108 3299.2969 1548.8395 3299.4735 1553.2031 3299.8262 C 1557.5668 3300.1347 1560.1461 3300.3094 1560.9395 3300.3535 C 1561.204 3300.089 1561.2913 3299.362 1561.2031 3298.1719 C 1561.1591 3296.9377 1560.9824 3296.0339 1560.6738 3295.4609 C 1560.1449 3295.4609 1559.5275 3295.4183 1558.8223 3295.3301 C 1558.117 3295.1978 1557.1706 3294.9765 1555.9805 3294.668 C 1554.7904 3294.3594 1553.6653 3293.7867 1552.6074 3292.9492 C 1551.5496 3292.0677 1550.7574 3291.0096 1550.2285 3289.7754 C 1549.8759 3288.8938 1549.3235 3287.462 1548.5742 3285.4785 C 1547.8249 3283.451 1547.1425 3281.7104 1546.5254 3280.2559 L 1519.418 3213.2129 C 1519.2857 3212.9925 1518.9324 3212.7935 1518.3594 3212.6172 C 1517.7864 3212.3968 1517.2136 3212.2871 1516.6406 3212.2871 z M 1696.4551 3212.2871 C 1696.1906 3212.6838 1696.0363 3213.4779 1695.9922 3214.668 C 1695.9922 3215.8581 1696.1465 3216.6948 1696.4551 3217.1797 C 1701.6562 3217.5764 1704.4772 3218.3705 1704.918 3219.5605 C 1705.6232 3221.3236 1705.9766 3225.4668 1705.9766 3231.9902 L 1705.9766 3280.6523 C 1705.9766 3287.1758 1705.6232 3291.3189 1704.918 3293.082 C 1704.4772 3294.2721 1701.6562 3295.0642 1696.4551 3295.4609 C 1696.1465 3295.9458 1695.9922 3296.7845 1695.9922 3297.9746 C 1696.0363 3299.1647 1696.1906 3299.9568 1696.4551 3300.3535 C 1702.4937 3299.7364 1708.7084 3299.4277 1715.0996 3299.4277 C 1721.6671 3299.4277 1727.9712 3299.7364 1734.0098 3300.3535 C 1734.2742 3299.9568 1734.4062 3299.1647 1734.4062 3297.9746 C 1734.4503 3296.7845 1734.3183 3295.9458 1734.0098 3295.4609 C 1728.8086 3295.0642 1725.9876 3294.2721 1725.5469 3293.082 C 1724.8416 3291.3189 1724.4883 3287.1758 1724.4883 3280.6523 L 1724.4883 3231.9902 C 1724.4883 3225.4668 1724.8416 3221.3236 1725.5469 3219.5605 C 1725.9876 3218.3705 1728.8086 3217.5764 1734.0098 3217.1797 C 1734.3183 3216.6948 1734.4503 3215.8581 1734.4062 3214.668 C 1734.4063 3213.4779 1734.2742 3212.6838 1734.0098 3212.2871 C 1727.9712 3212.9042 1721.7545 3213.2129 1715.3633 3213.2129 C 1708.7957 3213.2129 1702.4937 3212.9042 1696.4551 3212.2871 z M 1945.8457 3212.2871 C 1945.5813 3212.6838 1945.4269 3213.4779 1945.3828 3214.668 C 1945.3828 3215.8581 1945.5372 3216.6948 1945.8457 3217.1797 C 1951.0468 3217.5764 1953.8678 3218.3705 1954.3086 3219.5605 C 1955.0138 3221.3236 1955.3672 3225.4668 1955.3672 3231.9902 L 1955.3672 3280.6523 C 1955.3672 3287.1758 1955.0138 3291.3189 1954.3086 3293.082 C 1953.8678 3294.2721 1951.0468 3295.0642 1945.8457 3295.4609 C 1945.5372 3295.9458 1945.3828 3296.7845 1945.3828 3297.9746 C 1945.4269 3299.1647 1945.5812 3299.9568 1945.8457 3300.3535 C 1951.8843 3299.7364 1958.099 3299.4277 1964.4902 3299.4277 C 1971.0578 3299.4277 1977.3618 3299.7364 1983.4004 3300.3535 C 1983.6649 3299.9568 1983.7969 3299.1647 1983.7969 3297.9746 C 1983.8409 3296.7845 1983.7089 3295.9458 1983.4004 3295.4609 C 1978.1993 3295.0642 1975.3783 3294.2721 1974.9375 3293.082 C 1974.2323 3291.3189 1973.8789 3287.1758 1973.8789 3280.6523 L 1973.8789 3231.9902 C 1973.8789 3225.4668 1974.2323 3221.3236 1974.9375 3219.5605 C 1975.3783 3218.3705 1978.1993 3217.5764 1983.4004 3217.1797 C 1983.709 3216.6948 1983.841 3215.8581 1983.7969 3214.668 C 1983.7969 3213.4779 1983.6649 3212.6838 1983.4004 3212.2871 C 1977.3618 3212.9042 1971.1451 3213.2129 1964.7539 3213.2129 C 1958.1864 3213.2129 1951.8843 3212.9042 1945.8457 3212.2871 z M 2345.0117 3212.2871 C 2344.7473 3212.6838 2344.5929 3213.4779 2344.5488 3214.668 C 2344.5488 3215.8581 2344.7032 3216.6948 2345.0117 3217.1797 C 2350.2129 3217.5764 2353.0338 3218.3705 2353.4746 3219.5605 C 2354.1798 3221.3236 2354.5332 3225.4668 2354.5332 3231.9902 L 2354.5332 3280.6523 C 2354.5332 3287.1758 2354.1798 3291.3189 2353.4746 3293.082 C 2353.0338 3294.2721 2350.2129 3295.0642 2345.0117 3295.4609 C 2344.7032 3295.9458 2344.5488 3296.7845 2344.5488 3297.9746 C 2344.5929 3299.1647 2344.7473 3299.9568 2345.0117 3300.3535 C 2351.0503 3299.7364 2357.265 3299.4277 2363.6562 3299.4277 C 2370.2238 3299.4277 2376.5278 3299.7364 2382.5664 3300.3535 C 2382.8309 3299.9568 2382.9629 3299.1647 2382.9629 3297.9746 C 2383.007 3296.7845 2382.875 3295.9458 2382.5664 3295.4609 C 2377.3653 3295.0642 2374.5443 3294.2721 2374.1035 3293.082 C 2373.3983 3291.3189 2373.0449 3287.1758 2373.0449 3280.6523 L 2373.0449 3231.9902 C 2373.0449 3225.4668 2373.3983 3221.3236 2374.1035 3219.5605 C 2374.5443 3218.3705 2377.3653 3217.5764 2382.5664 3217.1797 C 2382.875 3216.6948 2383.007 3215.8581 2382.9629 3214.668 C 2382.9629 3213.4779 2382.8309 3212.6838 2382.5664 3212.2871 C 2376.5278 3212.9042 2370.3112 3213.2129 2363.9199 3213.2129 C 2357.3524 3213.2129 2351.0503 3212.9042 2345.0117 3212.2871 z M 2523.7012 3212.2871 C 2523.4367 3212.6838 2523.2824 3213.4779 2523.2383 3214.668 C 2523.2383 3215.8581 2523.3926 3216.6948 2523.7012 3217.1797 C 2528.9023 3217.5764 2531.7233 3218.3705 2532.1641 3219.5605 C 2532.8693 3221.3236 2533.2227 3225.4668 2533.2227 3231.9902 L 2533.2227 3260.0234 C 2533.2227 3273.3789 2535.6903 3283.164 2540.627 3289.3789 C 2543.7124 3293.2136 2547.6808 3296.122 2552.5293 3298.1055 C 2557.4219 3300.0449 2562.7552 3301.0156 2568.5293 3301.0156 C 2572.4081 3301.0156 2576.0882 3300.5302 2579.5703 3299.5605 C 2583.0965 3298.5908 2586.4029 3297.0697 2589.4883 3294.998 C 2592.5737 3292.9264 2595.2403 3290.3918 2597.4883 3287.3945 C 2599.7362 3284.3973 2601.4991 3280.7395 2602.7773 3276.4199 C 2604.0997 3272.0563 2604.7598 3267.253 2604.7598 3262.0078 L 2604.7598 3236.3535 C 2604.7598 3233.4003 2604.9364 3230.3153 2605.2891 3227.0977 C 2605.6417 3223.88 2606.0824 3221.6318 2606.6113 3220.3535 C 2606.7435 3220.045 2606.9202 3219.7809 2607.1406 3219.5605 C 2607.4051 3219.2961 2607.7361 3219.0747 2608.1328 3218.8984 C 2608.5295 3218.6781 2608.9256 3218.5033 2609.3223 3218.3711 C 2609.719 3218.1948 2610.182 3218.0608 2610.7109 3217.9727 C 2611.2839 3217.8404 2611.7693 3217.7307 2612.166 3217.6426 C 2612.5627 3217.5544 2613.0461 3217.4894 2613.6191 3217.4453 C 2614.1922 3217.4012 2614.6125 3217.3566 2614.877 3217.3125 C 2615.1855 3217.2684 2615.5592 3217.2461 2616 3217.2461 C 2616.4848 3217.202 2616.7489 3217.1797 2616.793 3217.1797 C 2617.1015 3216.6948 2617.2335 3215.8581 2617.1895 3214.668 C 2617.1895 3213.4779 2617.0574 3212.6838 2616.793 3212.2871 C 2615.7792 3212.3312 2613.5105 3212.5079 2609.9844 3212.8164 C 2606.4582 3213.0809 2603.5702 3213.2129 2601.3223 3213.2129 C 2597.5757 3213.2129 2592.0658 3212.9042 2584.793 3212.2871 C 2584.5285 3212.6838 2584.3742 3213.4779 2584.3301 3214.668 C 2584.3301 3215.8581 2584.4844 3216.6948 2584.793 3217.1797 C 2590.6994 3217.6205 2594.0057 3218.6786 2594.7109 3220.3535 C 2595.2399 3221.6318 2595.6806 3223.9023 2596.0332 3227.1641 C 2596.3858 3230.4258 2596.5625 3233.5331 2596.5625 3236.4863 L 2596.5625 3258.9648 C 2596.5625 3264.5186 2595.9451 3269.4558 2594.7109 3273.7754 C 2593.5208 3278.0509 2591.89 3281.4446 2589.8184 3283.957 C 2587.7467 3286.4695 2585.4538 3288.3643 2582.9414 3289.6426 C 2580.4731 3290.8767 2577.8734 3291.4941 2575.1406 3291.4941 C 2565.3995 3291.4941 2558.6994 3287.2636 2555.041 3278.8008 C 2553.6305 3275.5831 2552.7268 3272.3214 2552.3301 3269.0156 C 2551.9334 3265.7098 2551.7344 3261.4347 2551.7344 3256.1895 L 2551.7344 3231.9902 C 2551.7344 3225.4668 2552.0877 3221.3236 2552.793 3219.5605 C 2553.2337 3218.3705 2556.0547 3217.5764 2561.2559 3217.1797 C 2561.5644 3216.6948 2561.6964 3215.8581 2561.6523 3214.668 C 2561.6523 3213.4779 2561.5203 3212.6838 2561.2559 3212.2871 C 2555.2172 3212.9042 2549.0026 3213.2129 2542.6113 3213.2129 C 2536.0438 3213.2129 2529.7398 3212.9042 2523.7012 3212.2871 z M 1359.791 3212.5527 C 1359.5266 3212.9494 1359.3722 3213.7416 1359.3281 3214.9316 C 1359.3281 3216.1217 1359.4825 3216.9605 1359.791 3217.4453 C 1365.0362 3217.842 1367.8572 3218.5468 1368.2539 3219.5605 C 1368.9591 3221.3236 1369.3125 3225.4668 1369.3125 3231.9902 L 1369.3125 3280.6523 C 1369.3125 3287.1758 1368.9591 3291.3189 1368.2539 3293.082 C 1367.8131 3294.2721 1364.9922 3295.0642 1359.791 3295.4609 C 1359.4825 3295.9458 1359.3281 3296.7845 1359.3281 3297.9746 C 1359.3722 3299.1647 1359.5265 3299.9568 1359.791 3300.3535 C 1365.8296 3299.7364 1372.0443 3299.4277 1378.4355 3299.4277 C 1385.0031 3299.4277 1391.3071 3299.7364 1397.3457 3300.3535 C 1397.6102 3299.9568 1397.7422 3299.1647 1397.7422 3297.9746 C 1397.7863 3296.7845 1397.6543 3295.9458 1397.3457 3295.4609 C 1392.1446 3295.0642 1389.3236 3294.2721 1388.8828 3293.082 C 1388.1776 3291.3189 1387.8242 3287.1758 1387.8242 3280.6523 L 1387.8242 3260.2871 L 1389.8086 3260.2871 C 1390.5138 3260.2871 1391.306 3260.9492 1392.1875 3262.2715 L 1413.6094 3290.9648 C 1415.5929 3293.6535 1418.3042 3295.9911 1421.7422 3297.9746 C 1425.1802 3299.914 1429.2137 3300.8828 1433.8418 3300.8828 C 1440.2771 3300.8828 1446.0511 3300.7061 1451.1641 3300.3535 C 1451.2963 3300.089 1451.3836 3299.362 1451.4277 3298.1719 C 1451.5158 3296.9377 1451.4285 3296.0339 1451.1641 3295.4609 C 1450.6792 3295.4609 1450.0841 3295.4183 1449.3789 3295.3301 C 1448.6736 3295.2419 1447.4835 3294.9759 1445.8086 3294.5352 C 1444.1337 3294.0503 1442.4805 3293.3902 1440.8496 3292.5527 C 1439.2187 3291.7153 1437.3239 3290.4378 1435.1641 3288.7188 C 1433.0483 3286.9997 1431.0641 3284.9709 1429.2129 3282.6348 L 1426.5684 3279.3301 C 1424.7612 3277.1262 1422.2712 3273.9965 1419.0977 3269.9414 C 1415.9241 3265.8422 1412.9041 3261.8738 1410.0391 3258.0391 C 1411.714 3257.6424 1413.5438 3256.8056 1415.5273 3255.5273 C 1417.5549 3254.2491 1419.5168 3252.6852 1421.4121 3250.834 C 1423.3074 3248.9827 1424.8713 3246.7995 1426.1055 3244.2871 C 1427.3837 3241.7306 1428.0234 3239.1756 1428.0234 3236.6191 C 1428.0234 3228.9497 1425.3345 3223.0194 1419.957 3218.832 C 1414.6237 3214.6447 1407.6596 3212.5527 1399.0645 3212.5527 C 1396.2876 3212.5527 1392.6075 3212.6178 1388.0234 3212.75 C 1383.4834 3212.8822 1380.3761 3212.9492 1378.7012 3212.9492 C 1370.062 3212.9492 1363.758 3212.8172 1359.791 3212.5527 z M 1590.3164 3212.5527 C 1590.052 3212.9494 1589.8976 3213.7416 1589.8535 3214.9316 C 1589.8535 3216.1217 1590.0079 3216.9605 1590.3164 3217.4453 C 1595.5616 3217.842 1598.3826 3218.5468 1598.7793 3219.5605 C 1599.4845 3221.3236 1599.8379 3225.4668 1599.8379 3231.9902 L 1599.8379 3280.6523 C 1599.8379 3287.1758 1599.4845 3291.3189 1598.7793 3293.082 C 1598.3385 3294.184 1595.5175 3294.9334 1590.3164 3295.3301 C 1590.0079 3295.8149 1589.8535 3296.6517 1589.8535 3297.8418 C 1589.8976 3299.0319 1590.0519 3299.826 1590.3164 3300.2227 L 1621.127 3300.2227 C 1625.4906 3300.2668 1628.8397 3300.2444 1631.1758 3300.1562 C 1633.556 3300.1122 1636.4439 3299.7588 1639.8379 3299.0977 C 1643.2759 3298.3924 1646.2066 3297.312 1648.6309 3295.8574 C 1652.8623 3293.345 1656.2337 3290.2173 1658.7461 3286.4707 C 1661.2585 3282.68 1662.5156 3278.6689 1662.5156 3274.4375 C 1662.5156 3271.8369 1661.9856 3269.345 1660.9277 3266.9648 C 1659.8699 3264.5846 1658.5254 3262.5577 1656.8945 3260.8828 C 1655.3077 3259.2079 1653.5226 3257.7314 1651.5391 3256.4531 C 1649.5997 3255.1749 1647.7494 3254.2061 1645.9863 3253.5449 C 1644.2232 3252.8397 1642.637 3252.397 1641.2266 3252.2207 C 1640.9621 3252.0003 1641.1815 3251.7363 1641.8867 3251.4277 C 1642.9887 3251.031 1644.2458 3250.3933 1645.6562 3249.5117 C 1647.0667 3248.6302 1648.6083 3247.4604 1650.2832 3246.0059 C 1651.9581 3244.5072 1653.3473 3242.657 1654.4492 3240.4531 C 1655.5952 3238.2493 1656.168 3235.9137 1656.168 3233.4453 C 1656.168 3229.7869 1655.3535 3226.5679 1653.7227 3223.791 C 1652.1359 3220.9701 1650.0196 3218.7888 1647.375 3217.2461 C 1644.7303 3215.6593 1641.887 3214.4915 1638.8457 3213.7422 C 1635.8484 3212.9488 1632.7188 3212.5527 1629.457 3212.5527 C 1626.7242 3212.5527 1623.0888 3212.6178 1618.5488 3212.75 C 1614.0088 3212.8822 1610.9015 3212.9492 1609.2266 3212.9492 C 1600.5874 3212.9492 1594.2834 3212.8172 1590.3164 3212.5527 z M 1395.0977 3217.8418 C 1397.6982 3217.8418 1399.9018 3218.3922 1401.709 3219.4941 C 1403.5162 3220.552 1404.883 3222.0732 1405.8086 3224.0566 C 1406.7342 3226.0401 1407.372 3228.134 1407.7246 3230.3379 C 1408.1213 3232.5418 1408.3203 3235.0764 1408.3203 3237.9414 C 1408.3203 3242.8781 1406.8885 3246.9765 1404.0234 3250.2383 C 1401.1584 3253.5 1397.7851 3255.1309 1393.9062 3255.1309 L 1387.8242 3255.1309 L 1387.8242 3227.4941 C 1387.8242 3223.1745 1388.0456 3220.4856 1388.4863 3219.4277 C 1388.9712 3218.3699 1391.1748 3217.8418 1395.0977 3217.8418 z M 1625.623 3217.8418 C 1632.9399 3217.8418 1636.5977 3223.7031 1636.5977 3235.4277 C 1636.5977 3240.2763 1635.5396 3244.0456 1633.4238 3246.7344 C 1631.3522 3249.4231 1628.6205 3250.7676 1625.2266 3250.7676 L 1618.3496 3250.7676 L 1618.3496 3227.4941 C 1618.3496 3223.1745 1618.571 3220.4856 1619.0117 3219.4277 C 1619.4966 3218.3699 1621.7001 3217.8418 1625.623 3217.8418 z M 1279.6367 3236.8828 L 1290.6113 3262.8008 L 1290.6113 3262.9316 C 1290.6113 3263.0197 1290.5667 3263.1517 1290.4785 3263.3281 C 1290.3903 3263.4163 1290.303 3263.4609 1290.2148 3263.4609 C 1287.482 3263.6373 1283.9563 3263.7266 1279.6367 3263.7266 C 1274.9645 3263.7266 1271.3048 3263.5945 1268.6602 3263.3301 C 1268.4838 3263.3301 1268.3965 3263.1534 1268.3965 3262.8008 L 1279.6367 3236.8828 z M 1510.1621 3236.8828 L 1521.1367 3262.8008 L 1521.1367 3262.9316 C 1521.1367 3263.0197 1521.0921 3263.1517 1521.0039 3263.3281 C 1520.9157 3263.4163 1520.8284 3263.4609 1520.7402 3263.4609 C 1518.0074 3263.6373 1514.4817 3263.7266 1510.1621 3263.7266 C 1505.4899 3263.7266 1501.8302 3263.5945 1499.1855 3263.3301 C 1499.0092 3263.3301 1498.9219 3263.1534 1498.9219 3262.8008 L 1510.1621 3236.8828 z M 1618.3496 3255.9238 L 1625.2266 3255.9238 C 1628.2238 3255.9238 1630.8235 3256.5189 1633.0273 3257.709 C 1635.2753 3258.8991 1636.9935 3260.5299 1638.1836 3262.6016 C 1639.4178 3264.6291 1640.3215 3266.8104 1640.8945 3269.1465 C 1641.4675 3271.4385 1641.7539 3273.9081 1641.7539 3276.5527 C 1641.7539 3279.7704 1641.3132 3282.6137 1640.4316 3285.082 C 1639.5501 3287.5504 1638.4046 3289.4452 1636.9941 3290.7676 C 1635.5837 3292.0899 1634.0848 3293.081 1632.498 3293.7422 C 1630.9553 3294.3593 1629.3691 3294.668 1627.7383 3294.668 C 1622.9338 3294.668 1620.1575 3294.1399 1619.4082 3293.082 C 1618.703 3292.0242 1618.3496 3289.4672 1618.3496 3285.4121 L 1618.3496 3255.9238 z "
       transform="matrix(0.26458333,0,0,0.26458333,0,-761.33335)"
       id="path2061" />
  </g>
</svg>
